<?xml version="1.0" standalone="no"?><!DOCTYPE svg PUBLIC "-//W3C//DTD SVG 1.1//EN" "http://www.w3.org/Graphics/SVG/1.1/DTD/svg11.dtd"><svg class="icon" height="512" viewBox="0 0 1024 1024" version="1.1" xmlns="http://www.w3.org/2000/svg"><path d="M1024 512c0-282.784-229.216-512-512-512S0 229.216 0 512s229.216 512 512 512c117.44 0 228.8-39.68 318.784-111.328a24.96 24.96 0 1 0-31.136-39.04A459.904 459.904 0 0 1 512 974.016C256.832 974.048 49.952 767.168 49.952 512S256.832 49.952 512 49.952 974.048 256.832 974.048 512c0 87.488-24.32 171.328-69.568 243.968a24.96 24.96 0 0 0 42.4 26.4A509.664 509.664 0 0 0 1024 512z m-686.816-12.48a62.432 62.432 0 1 0 0-124.896 62.432 62.432 0 0 0 0 124.896z m374.624 0a62.432 62.432 0 1 0 0-124.896 62.432 62.432 0 0 0 0 124.896z m-359.04 205.28c43.392-34.72 100.384-55.424 171.712-55.424 71.36 0 128.32 20.704 171.712 55.424 26.496 21.184 42.688 42.784 50.432 58.24a24.96 24.96 0 0 1-44.672 22.368 91.104 91.104 0 0 0-7.776-11.808 166.048 166.048 0 0 0-29.184-29.824c-34.688-27.712-80.704-44.48-140.48-44.48-59.84 0-105.856 16.768-140.512 44.48a166.048 166.048 0 0 0-29.184 29.824c-4.32 5.76-6.88 9.984-7.808 11.808a24.96 24.96 0 0 1-44.672-22.336c7.744-15.488 23.936-37.088 50.464-58.272z" fill="#FF6969" /></svg>